<?xml version="1.0" encoding="UTF-8"?>
<svg width="151px" height="151px" viewBox="0 0 151 151" version="1.1" xmlns="http://www.w3.org/2000/svg" xmlns:xlink="http://www.w3.org/1999/xlink">
    <!-- Generator: Sketch 57.1 (83088) - https://sketch.com -->
    <title>Bigger 4x4</title>
    <desc>Created with Sketch.</desc>
    <g id="Bigger-4x4" stroke="none" stroke-width="1" fill="none" fill-rule="evenodd" opacity="0.504115513">
        <g id="Group-2" fill="#F9F9F2">
            <g id="Group">
                <rect id="Rectangle-Copy-14" x="0" y="0" width="11" height="11"></rect>
                <rect id="Rectangle-Copy-16" x="0" y="28" width="11" height="11"></rect>
                <rect id="Rectangle-Copy-27" x="0" y="56" width="11" height="11"></rect>
                <rect id="Rectangle-Copy-28" x="0" y="84" width="11" height="11"></rect>
                <rect id="Rectangle-Copy-29" x="0" y="112" width="11" height="11"></rect>
                <rect id="Rectangle-Copy-30" x="0" y="140" width="11" height="11"></rect>
            </g>
            <g id="Group-Copy" transform="translate(28.000000, 0.000000)">
                <rect id="Rectangle-Copy-14" x="0" y="0" width="11" height="11"></rect>
                <rect id="Rectangle-Copy-16" x="0" y="28" width="11" height="11"></rect>
                <rect id="Rectangle-Copy-27" x="0" y="56" width="11" height="11"></rect>
                <rect id="Rectangle-Copy-28" x="0" y="84" width="11" height="11"></rect>
                <rect id="Rectangle-Copy-29" x="0" y="112" width="11" height="11"></rect>
                <rect id="Rectangle-Copy-30" x="0" y="140" width="11" height="11"></rect>
            </g>
            <g id="Group-Copy-2" transform="translate(56.000000, 0.000000)">
                <rect id="Rectangle-Copy-14" x="0" y="0" width="11" height="11"></rect>
                <rect id="Rectangle-Copy-16" x="0" y="28" width="11" height="11"></rect>
                <rect id="Rectangle-Copy-27" x="0" y="56" width="11" height="11"></rect>
                <rect id="Rectangle-Copy-28" x="0" y="84" width="11" height="11"></rect>
                <rect id="Rectangle-Copy-29" x="0" y="112" width="11" height="11"></rect>
                <rect id="Rectangle-Copy-30" x="0" y="140" width="11" height="11"></rect>
            </g>
            <g id="Group-Copy-3" transform="translate(84.000000, 0.000000)">
                <rect id="Rectangle-Copy-14" x="0" y="0" width="11" height="11"></rect>
                <rect id="Rectangle-Copy-16" x="0" y="28" width="11" height="11"></rect>
                <rect id="Rectangle-Copy-27" x="0" y="56" width="11" height="11"></rect>
                <rect id="Rectangle-Copy-28" x="0" y="84" width="11" height="11"></rect>
                <rect id="Rectangle-Copy-29" x="0" y="112" width="11" height="11"></rect>
                <rect id="Rectangle-Copy-30" x="0" y="140" width="11" height="11"></rect>
            </g>
            <g id="Group-Copy-4" transform="translate(112.000000, 0.000000)">
                <rect id="Rectangle-Copy-14" x="0" y="0" width="11" height="11"></rect>
                <rect id="Rectangle-Copy-16" x="0" y="28" width="11" height="11"></rect>
                <rect id="Rectangle-Copy-27" x="0" y="56" width="11" height="11"></rect>
                <rect id="Rectangle-Copy-28" x="0" y="84" width="11" height="11"></rect>
                <rect id="Rectangle-Copy-29" x="0" y="112" width="11" height="11"></rect>
                <rect id="Rectangle-Copy-30" x="0" y="140" width="11" height="11"></rect>
            </g>
            <g id="Group-Copy-5" transform="translate(140.000000, 0.000000)">
                <rect id="Rectangle-Copy-14" x="0" y="0" width="11" height="11"></rect>
                <rect id="Rectangle-Copy-16" x="0" y="28" width="11" height="11"></rect>
                <rect id="Rectangle-Copy-27" x="0" y="56" width="11" height="11"></rect>
                <rect id="Rectangle-Copy-28" x="0" y="84" width="11" height="11"></rect>
                <rect id="Rectangle-Copy-29" x="0" y="112" width="11" height="11"></rect>
                <rect id="Rectangle-Copy-30" x="0" y="140" width="11" height="11"></rect>
            </g>
        </g>
    </g>
</svg>